<?xml version="1.0" encoding="UTF-8" standalone="no"?>
<!-- Created with Inkscape (http://www.inkscape.org/) -->

<svg
   width="210mm"
   height="297mm"
   viewBox="0 0 210 297"
   version="1.1"
   id="svg5"
   inkscape:version="1.1.2 (b8e25be833, 2022-02-05)"
   sodipodi:docname="Logo.svg"
   xmlns:inkscape="http://www.inkscape.org/namespaces/inkscape"
   xmlns:sodipodi="http://sodipodi.sourceforge.net/DTD/sodipodi-0.dtd"
   xmlns="http://www.w3.org/2000/svg"
   xmlns:svg="http://www.w3.org/2000/svg">
  <sodipodi:namedview
     id="namedview7"
     pagecolor="#ffffff"
     bordercolor="#666666"
     borderopacity="1.0"
     inkscape:pageshadow="2"
     inkscape:pageopacity="0.0"
     inkscape:pagecheckerboard="0"
     inkscape:document-units="px"
     showgrid="false"
     showborder="false"
     inkscape:zoom="1.4805976"
     inkscape:cx="117.18241"
     inkscape:cy="376.87484"
     inkscape:window-width="1920"
     inkscape:window-height="1017"
     inkscape:window-x="-8"
     inkscape:window-y="-8"
     inkscape:window-maximized="1"
     inkscape:current-layer="layer1" />
  <defs
     id="defs2" />
  <g
     inkscape:label="Sloj 1"
     inkscape:groupmode="layer"
     id="layer1">
    <path
       style="fill:#ffff00;stroke-width:0.393248"
       d="m 54.030908,162.5732 c -2.576112,-1.70635 -5.476185,-5.05225 -8.897466,-10.26528 l -2.932682,-4.46855 -4.135273,-1.95374 c -2.2744,-1.07456 -5.113286,-2.67766 -6.308635,-3.56243 -3.393621,-2.51192 -11.577321,-10.59056 -11.255602,-11.11111 0.154322,-0.2497 0.857387,-0.454 1.562368,-0.454 0.70498,0 2.20007,-0.2727 3.32242,-0.606 2.847064,-0.84549 4.549692,-2.65943 5.556813,-5.92011 0.97604,-3.16005 1.007642,-4.96597 0.143639,-8.20847 l -0.659861,-2.47637 1.416531,-1.6549 c 1.935741,-2.26148 4.157241,-6.60321 4.6158,-9.02118 0.702752,-3.705595 -0.616642,-7.834756 -3.578683,-11.199812 -0.870109,-0.988496 -1.487649,-1.949957 -1.37231,-2.136578 0.115338,-0.186622 2.234836,-0.454976 4.709994,-0.596343 3.995033,-0.228173 10.322489,-1.157073 10.742459,-1.577043 0.273195,-0.273195 -3.07032,-8.308932 -3.524889,-8.471648 -0.890314,-0.318695 -2.251239,-1.996292 -2.251239,-2.775077 0,-0.600776 0.254711,-0.80437 1.006327,-0.80437 0.598902,0 0.903618,0.166186 0.75264,0.410474 -0.336137,0.543882 0.529691,1.554536 1.336853,1.560467 0.447244,0.0033 1.211892,1.411567 2.538538,4.675323 l 1.898506,4.670621 1.444099,-0.522857 c 6.468212,-2.341915 8.436508,-2.732861 13.634773,-2.708166 4.76559,0.02264 5.432184,0.12398 9.831189,1.494614 2.595434,0.808681 4.962045,1.505598 5.259132,1.548704 0.554561,0.08046 5.059488,-9.396464 4.657683,-9.798271 -0.113436,-0.113434 -1.391074,0.159713 -2.839196,0.606993 -1.448127,0.44728 -2.793698,0.713893 -2.990157,0.592473 -0.196462,-0.121419 -0.625932,-0.740426 -0.954376,-1.375569 -0.581947,-1.125364 -0.572686,-1.154806 0.363274,-1.154806 0.528246,0 1.019432,0.176904 1.09153,0.39312 0.08539,0.256082 0.920647,0.227501 2.396112,-0.08199 2.160259,-0.453131 2.293176,-0.434935 2.873346,0.393376 0.757753,1.081843 1.750766,1.122094 2.02276,0.08199 0.136217,-0.520892 0.536397,-0.786495 1.185,-0.786495 0.731456,0 0.918913,0.157439 0.740631,0.622034 -0.131286,0.342119 -0.238698,0.787123 -0.238698,0.988899 0,0.201776 -0.566154,0.711164 -1.258121,1.131973 -0.982855,0.597712 -1.670759,1.686661 -3.144152,4.977182 -1.03732,2.31664 -1.800543,4.297566 -1.696053,4.402058 0.441452,0.44145 5.842059,1.233423 10.14285,1.4874 2.54892,0.150523 4.729034,0.426806 4.844704,0.613962 0.11567,0.187157 -0.53464,1.177784 -1.44513,2.201395 -2.420612,2.721348 -3.607582,5.539755 -3.662767,8.697067 -0.06534,3.73821 1.251605,6.73976 5.500865,12.53748 0.609609,0.83175 0.606848,1.03716 -0.04167,3.09896 -1.36219,4.33076 0.104797,10.69719 2.928161,12.7076 1.497404,1.06625 4.352514,1.98189 6.179824,1.98189 2.43685,0 1.65705,1.20504 -4.45432,6.88336 -5.461388,5.07439 -6.036378,5.49193 -10.810171,7.84997 l -5.041981,2.49051 -3.088346,4.66019 c -5.452421,8.22748 -8.773153,11.14877 -12.67317,11.14877 h -2.117339 l 2.870872,-1.37583 c 3.783703,-1.81329 6.508743,-4.60075 10.617999,-10.86124 l 3.256948,-4.96199 5.183038,-2.57674 c 3.463441,-1.72185 5.90062,-3.23382 7.345899,-4.55724 l 2.162862,-1.9805 -34.999033,7.9e-4 -34.999035,7.9e-4 2.162862,1.99153 c 1.464133,1.34815 3.814401,2.80854 7.27508,4.52054 l 5.112218,2.52902 3.311708,4.99786 c 3.930099,5.9311 7.132904,9.23401 10.653736,10.98672 l 2.550955,1.2699 -1.99713,0.008 c -1.583317,0.006 -2.37805,-0.24415 -3.835514,-1.20954 z M 26.247311,132.71975 c 2.035308,-1.44926 7.075092,-3.6316 8.848174,-3.83145 0.962771,-0.10852 1.906868,-0.39581 2.097992,-0.63844 0.191125,-0.24261 0.466779,-1.81257 0.612565,-3.48879 l 0.265066,-3.04767 h -0.999517 c -0.975333,0 -0.999518,-0.0666 -0.999518,-2.75273 v -2.75274 h 2.359486 c 1.967586,0 2.367062,0.11431 2.405102,0.68819 0.04345,0.65541 0.05418,0.65541 0.225459,0 0.145761,-0.55777 0.6215,-0.68819 2.510492,-0.68819 1.940124,0 2.338294,0.11532 2.376268,0.68819 0.04345,0.65541 0.05418,0.65541 0.225458,0 0.140582,-0.53796 0.602775,-0.68819 2.117245,-0.68819 h 1.937403 v 2.75274 c 0,2.49056 -0.0749,2.75273 -0.786495,2.75273 -0.935084,0 -0.944896,0.15806 -0.322124,5.18895 0.455501,3.67964 0.515149,3.83585 1.710561,4.47962 1.215976,0.65484 1.286051,0.64367 3.835819,-0.61157 2.764225,-1.36083 2.711572,-1.27731 3.230567,-5.12452 0.131298,-0.97329 0.331792,-2.25626 0.445543,-2.85105 0.183143,-0.95763 0.08864,-1.08143 -0.825513,-1.08143 -1.023803,0 -1.031371,-0.0219 -0.916052,-2.65442 l 0.116279,-2.65442 4.424035,-0.0921 c 3.912837,-0.0815 4.424036,-0.016 4.424036,0.56672 0,0.60084 0.04434,0.59822 0.503502,-0.0297 0.39567,-0.54112 0.964141,-0.66249 2.654421,-0.56673 l 2.150919,0.12187 0.116279,2.65442 0.11628,2.65442 -1.099399,-3.9e-4 -1.099398,-4e-4 0.367734,3.72984 0.367729,3.72984 1.401885,0.45376 c 0.771032,0.24957 2.410289,0.95827 3.642794,1.5749 2.161261,1.08128 3.461176,1.15379 3.461176,0.19307 0,-0.63778 0.739357,-6.84518 1.000807,-8.40244 0.195319,-1.16336 0.12475,-1.27805 -0.786365,-1.27805 -0.976202,-1.3e-4 -1.000937,-0.0675 -1.000937,-2.72746 v -2.72733 l 4.522347,-0.005 c 3.977794,-0.005 4.527841,0.075 4.567964,0.66278 0.04146,0.60732 0.06201,0.6055 0.225461,-0.0199 0.145761,-0.55777 0.6215,-0.68818 2.510488,-0.68818 h 2.330652 v 2.75273 c 0,2.69336 -0.02179,2.75274 -1.009619,2.75274 -0.772334,0 -0.964609,0.16173 -0.818108,0.68818 0.105331,0.3785 0.305706,1.85842 0.445278,3.2887 l 0.253762,2.60052 2.47186,0.4096 c 1.35952,0.22528 3.242141,0.78176 4.1836,1.23662 l 1.711743,0.82703 -1.23963,-1.28103 c -2.369966,-2.44917 -3.049529,-4.64066 -3.049529,-9.83432 V 115.0285 H 63.796028 33.122716 v 4.62077 c 0,4.26961 -0.08405,4.79197 -1.106041,6.8736 -1.362896,2.776 -3.310544,4.43933 -6.265658,5.35101 -1.752854,0.54077 -2.15405,0.8025 -1.789276,1.16728 0.645172,0.64517 0.998566,0.59555 2.28557,-0.32088 z m 77.123339,0.27662 c 0.55376,-0.42145 0.34421,-0.57783 -1.50818,-1.12553 l -2.151287,-0.63608 1.311557,1.12205 c 1.51027,1.29206 1.49575,1.2881 2.34791,0.63956 z m -20.108867,-4.6456 c 0,-1.48087 0.03997,-1.52515 1.376366,-1.52515 1.205961,0 1.376367,0.12172 1.376367,0.98312 0,0.83451 0.181928,0.98312 1.203554,0.98312 h 1.203553 l -0.271631,-2.85105 c -0.310053,-3.25429 -0.562486,-3.94551 -0.562486,-1.54022 0,1.4856 -0.09176,1.63853 -0.983119,1.63853 -0.903014,0 -0.983119,-0.14419 -0.983119,-1.76961 0,-1.62542 0.0801,-1.76961 0.983119,-1.76961 0.540715,0 0.983119,-0.17697 0.983119,-0.39325 0,-0.22907 -1.300411,-0.39325 -3.114733,-0.39325 -3.547817,0 -3.29057,-0.30812 -3.775743,4.52235 -0.130342,1.29771 -0.324953,2.82998 -0.43247,3.40503 -0.194851,1.04214 -0.190281,1.04423 1.400869,0.64035 1.522254,-0.38639 1.596354,-0.476 1.596354,-1.93036 z m -1.890538,-3.98295 c 0.100526,-1.38935 0.270192,-1.6925 1.005731,-1.79696 0.806822,-0.11459 0.884807,0.0327 0.884807,1.6713 0,1.66537 -0.07365,1.79696 -1.005731,1.79696 -0.940015,0 -0.997826,-0.1092 -0.884807,-1.6713 z m -34.018677,4.32572 c -0.11492,-0.48664 -0.331857,-2.25625 -0.48208,-3.93247 l -0.273133,-3.04767 h -3.296403 c -2.869574,0 -3.299018,0.0891 -3.316597,0.68818 -0.01111,0.3785 -0.153012,1.88268 -0.315346,3.34261 -0.262713,2.36268 -0.220807,2.65442 0.381279,2.65442 0.372037,0 0.956346,0.10741 1.298465,0.2387 0.469186,0.18004 0.622034,-0.0132 0.622034,-0.7865 0,-0.90948 0.155345,-1.02519 1.376366,-1.02519 1.259469,0 1.376367,0.0978 1.376367,1.15091 0,1.14737 0.410151,1.45028 2.107181,1.55621 0.56511,0.0353 0.683438,-0.15501 0.521867,-0.8392 z m -7.099533,-2.96375 c -0.120436,-0.19487 -0.112506,-1.0104 0.01762,-1.81228 0.194932,-1.20123 0.38277,-1.43711 1.066675,-1.33948 0.686512,0.098 0.830079,0.39055 0.830079,1.69148 0,1.31132 -0.141015,1.59308 -0.8477,1.69379 -0.466236,0.0664 -0.946239,-0.0387 -1.066676,-0.23351 z m 4.077237,-1.46028 c 0,-1.62542 0.08011,-1.76961 0.983119,-1.76961 0.903013,0 0.983119,0.14419 0.983119,1.76961 0,1.62542 -0.08011,1.76961 -0.983119,1.76961 -0.903012,0 -0.983119,-0.14419 -0.983119,-1.76961 z m 18.018427,3.44092 c 0.10243,-0.72121 0.3751,-0.88481 1.474679,-0.88481 1.061438,0 1.349016,0.15869 1.349016,0.74442 0,0.73537 0.717354,1.22182 1.801778,1.22182 0.398977,0 0.557707,-0.5046 0.557707,-1.77295 0,-1.63259 -0.05814,-1.73664 -0.734401,-1.3143 -1.262809,0.78863 -2.082388,0.14347 -1.943945,-1.53025 0.109752,-1.3269 0.233231,-1.47622 1.208973,-1.46193 0.597705,0.009 1.025865,-0.1682 0.951466,-0.39324 -0.07456,-0.22554 -1.56772,-0.46027 -3.327169,-0.52305 l -3.1919,-0.11388 -0.219468,1.29363 c -0.120711,0.71149 -0.370132,2.32032 -0.554274,3.57517 l -0.334807,2.28156 1.418341,-0.1187 c 1.127229,-0.0943 1.444135,-0.30029 1.544004,-1.00349 z m -1.729734,-2.20038 c -0.123307,-0.32133 -0.166757,-1.08583 -0.09655,-1.69888 0.102228,-0.89276 0.323343,-1.11465 1.110755,-1.11465 0.884807,0 0.983119,0.1573 0.983119,1.57299 0,1.33278 -0.135388,1.59222 -0.886565,1.69888 -0.514368,0.073 -0.980685,-0.11938 -1.110755,-0.45834 z m -12.355972,-6.05782 c 1.34e-4,-0.16222 -0.883698,-0.23369 -1.964072,-0.15882 -1.521907,0.10546 -2.018564,-0.005 -2.20518,-0.49156 -0.304537,-0.79361 -0.943211,-0.81921 -0.943211,-0.0378 0,0.44617 -0.482007,0.58987 -1.97858,0.58987 -1.395971,0 -2.045232,-0.17369 -2.204935,-0.58987 -0.327029,-0.85222 -0.928704,-0.72483 -0.928704,0.19663 0,0.74616 0.262165,0.78649 5.112219,0.78649 2.81172,0 5.112328,-0.13272 5.112463,-0.29493 z m 20.841877,-0.49156 c 0,-0.43694 -0.262167,-0.7865 -0.589872,-0.7865 -0.324429,0 -0.589871,0.26544 -0.589871,0.58987 0,0.44617 -0.482007,0.58987 -1.978578,0.58987 -1.395974,0 -2.045233,-0.17369 -2.204935,-0.58987 -0.124498,-0.32443 -0.384384,-0.58987 -0.577531,-0.58987 -0.193144,0 -0.351174,0.26544 -0.351174,0.58987 0,0.92374 -3.81171,0.83132 -4.054648,-0.0983 -0.135334,-0.51787 -0.191131,-0.46921 -0.225459,0.19663 -0.04517,0.87613 0.0064,0.8848 5.263226,0.8848 5.046675,0 5.308842,-0.0389 5.308842,-0.78649 z m 20.448874,0 c 0,-0.43258 -0.176962,-0.7865 -0.393248,-0.7865 -0.216286,0 -0.393247,0.26544 -0.393247,0.58987 0,0.44617 -0.482008,0.58987 -1.978578,0.58987 -1.395974,0 -2.045234,-0.17369 -2.204936,-0.58987 -0.124498,-0.32443 -0.384383,-0.58987 -0.577531,-0.58987 -0.193143,0 -0.351174,0.26544 -0.351174,0.58987 0,0.92374 -3.811709,0.83132 -4.054646,-0.0983 -0.135336,-0.51787 -0.191134,-0.46921 -0.22546,0.19663 -0.04509,0.87454 0.01368,0.8848 5.066601,0.8848 4.850052,0 5.112219,-0.0403 5.112219,-0.78649 z M 56.520947,108.73623 v -4.32572 h 6.685209 6.685209 v 4.32572 4.32572 h 7.078456 7.078457 v -4.32572 -4.32572 h 2.781031 2.781027 l -0.253361,-2.06455 c -0.226845,-1.84849 0.114745,-4.497539 0.815391,-6.323392 0.222652,-0.580222 -0.119477,-0.656753 -2.936034,-0.656753 H 84.048278 V 92.62824 89.890664 L 82.376976,89.46526 c -0.919217,-0.233973 -2.833668,-0.844498 -4.254334,-1.356723 -3.048286,-1.099068 -5.867155,-1.579293 -7.243121,-1.233948 -0.976748,0.245148 -0.988156,0.295599 -0.988156,4.369619 v 4.121607 H 63.21946 56.547556 l -0.111616,-4.227411 -0.111616,-4.227411 -1.863138,0.06326 c -1.024726,0.03479 -3.417207,0.601311 -5.316624,1.258931 -1.899418,0.65762 -4.194473,1.314161 -5.100124,1.458981 l -1.646637,0.263307 -0.115195,2.606861 -0.115195,2.606861 -2.492326,0.117972 c -2.15988,0.102237 -2.457866,0.207146 -2.233982,0.786496 0.609927,1.578323 0.94268,4.494888 0.723738,6.343518 l -0.236082,1.99333 h 2.217638 2.217638 v 4.32572 4.32572 h 7.078456 7.078456 z M 42.364035,99.691539 v -4.325724 h 6.881832 6.881833 v 4.325724 4.325721 h -6.881833 -6.881832 z m 27.920578,0 v -4.325724 h 6.881832 6.881833 v 4.325724 4.325721 h -6.881833 -6.881832 z m -3.752255,-12.973166 2.736327,-1.372361 -1.556584,-0.276278 c -1.93796,-0.343967 -6.667395,-0.319354 -8.241797,0.04289 l -1.179743,0.271441 2.052167,0.904875 c 1.128695,0.497681 2.261264,1.156816 2.51682,1.464743 0.255556,0.307928 0.57081,0.509735 0.700566,0.44846 0.129752,-0.06127 1.467262,-0.728972 2.972244,-1.483771 z m -7.966607,73.903717 c -3.800132,-1.89895 -5.939198,-5.03997 -6.270007,-9.20693 -0.233882,-2.94603 0.326366,-5.08962 1.969375,-7.5351 1.621793,-2.41391 3.900637,-3.9321 7.079808,-4.71664 2.293955,-0.56608 2.727526,-0.5654 4.964975,0.008 2.938464,0.7528 5.395475,2.35828 6.873846,4.49157 4.088827,5.90018 2.161918,13.80148 -4.132922,16.94704 -2.03939,1.01911 -2.886001,1.21483 -5.254798,1.21483 -2.362589,0 -3.21675,-0.19639 -5.230277,-1.20256 z m 3.657286,0.0489 c -0.432572,-0.17452 -1.40586,-0.42719 -2.162861,-0.5615 l -1.376367,-0.2442 1.376367,0.55651 c 0.757001,0.30608 1.730289,0.55876 2.162861,0.56151 l 0.786495,0.005 -0.786495,-0.31731 z m 5.11645,-0.15432 c 1.641514,-0.64004 3.731621,-1.94293 3.731621,-2.32614 0,-0.17521 -0.492759,-0.0637 -1.095022,0.2477 -0.602258,0.31144 -1.796748,0.69356 -2.654421,0.84915 -1.532883,0.27808 -3.722261,1.19814 -3.722261,1.56424 0,0.35443 2.560061,0.12515 3.740083,-0.33495 z m -8.065807,-2.07471 c 0,-0.32095 -0.744954,-1.59348 -1.655453,-2.82784 -0.9105,-1.23437 -1.662949,-2.27416 -1.672109,-2.31065 -0.0092,-0.0365 -0.502935,-0.18839 -1.097279,-0.33756 -0.95501,-0.23969 -1.080625,-0.16094 -1.080625,0.67754 0,1.46831 2.189682,4.60853 3.638251,5.21761 1.387725,0.5835 1.867215,0.47588 1.867215,-0.4191 z m 10.370395,-0.35548 c 0.94777,-0.44975 1.555806,-1.12283 1.986329,-2.19881 0.341245,-0.85286 0.620446,-1.62068 0.620446,-1.70627 0,-0.0856 -0.676999,-0.69181 -1.504439,-1.34716 -1.459857,-1.15623 -1.556006,-1.17649 -3.244292,-0.68371 -1.839632,0.53696 -2.797123,1.80434 -3.326309,4.40286 -0.216435,1.0628 -0.381076,1.19326 -1.296962,1.02767 -0.576984,-0.10431 -0.957381,-0.0885 -0.845333,0.035 0.112052,0.12359 0.642937,0.28688 1.179743,0.36286 0.536811,0.076 1.32994,0.35647 1.762512,0.62333 0.938981,0.57925 2.792089,0.37449 4.668305,-0.51583 z m -5.419966,-3.18472 0.974676,-2.20391 -1.487876,-1.69152 c -1.416242,-1.61009 -1.596479,-1.69331 -3.743768,-1.72857 -2.233083,-0.0367 -2.261915,-0.0226 -2.851045,1.38735 -0.835398,1.99939 -0.755384,2.45973 0.794788,4.57264 1.320971,1.8005 1.442055,1.86792 3.354497,1.86792 h 1.984056 z m 9.599732,-4.91356 c 0,-2.22969 -0.151208,-2.84565 -0.917148,-3.73611 l -0.917152,-1.06625 -1.24571,0.73586 c -1.158255,0.6842 -1.245714,0.8875 -1.245714,2.89567 0,1.95868 0.135057,2.29812 1.450329,3.64507 1.360951,1.39375 1.494238,1.44554 2.162862,0.84045 0.554593,-0.5019 0.712533,-1.23664 0.712533,-3.31469 z m -20.238728,0.0542 c 0.0074,-1.28884 -0.122573,-2.12921 -0.288913,-1.86747 -0.390318,0.61417 -0.407016,4.21188 -0.01955,4.21129 0.162215,-2.5e-4 0.301021,-1.05496 0.308459,-2.34382 z m 9.944599,-3.1635 1.306676,-1.90528 -0.913428,-1.59929 c -0.864508,-1.51363 -1.012648,-1.59945 -2.766033,-1.60232 -2.076996,-0.004 -2.958002,0.66705 -4.301269,3.27322 -0.728118,1.41268 -0.736284,1.56807 -0.130958,2.49192 0.355072,0.54191 0.572725,1.05815 0.483674,1.1472 -0.08905,0.089 -0.398536,-0.28023 -0.687744,-0.82062 -0.289208,-0.54039 -0.74099,-0.98252 -1.003961,-0.98252 -0.262971,0 -0.03305,0.48664 0.510942,1.08143 0.918518,1.00429 1.174762,1.07216 3.592249,0.95148 l 2.603177,-0.12995 z m 5.457632,0.26325 c -0.118077,-0.3077 -1.014803,-0.83209 -1.992723,-1.1653 -1.607325,-0.54767 -1.82706,-0.54677 -2.288611,0.009 -0.444012,0.535 -0.395831,0.57878 0.369614,0.33584 1.123921,-0.35672 3.635998,0.537 3.635998,1.29357 0,0.31702 0.110342,0.46607 0.245206,0.3312 0.13486,-0.13486 0.148596,-0.49696 0.03052,-0.80467 z m -13.828928,-0.5028 c 0.533106,-0.3493 0.969284,-0.81028 0.969284,-1.0244 0,-0.21411 0.539194,-1.18823 1.198208,-2.1647 0.659015,-0.97648 1.111607,-1.86202 1.00576,-1.96786 -0.676208,-0.67621 -4.563454,3.8683 -4.563454,5.33505 0,0.60775 0.237256,0.57735 1.390202,-0.17809 z m 15.431943,-1.15681 c 1.196974,-0.83839 1.099296,-1.46802 -0.437001,-2.81691 -1.693839,-1.48721 -4.646314,-2.35511 -5.966108,-1.75377 l -0.952477,0.43398 0.943165,1.66047 c 0.694137,1.22205 1.391227,1.83823 2.640115,2.33366 2.185131,0.86685 2.709928,0.88669 3.772306,0.14257 z m -1.682113,-4.50005 c -0.133673,-0.21628 -0.4538,-0.39054 -0.711393,-0.38723 -0.281412,0.004 -0.232908,0.15818 0.121522,0.38723 0.755475,0.48823 0.89161,0.48823 0.589871,0 z M 67.138632,140.196 c -0.324429,-0.20967 -0.943794,-0.36628 -1.376367,-0.34803 -0.64793,0.0273 -0.613289,0.0886 0.196624,0.34803 1.390398,0.44528 1.868768,0.44528 1.179743,0 z M 46.872337,77.227835 c -1.200283,-0.270463 -1.587035,-0.547697 -1.587035,-1.137628 0,-0.869614 0.458296,-0.935001 2.780478,-0.396707 0.983587,0.228001 1.712707,0.224487 1.946575,-0.0094 0.205662,-0.205662 0.785486,-0.37393 1.288498,-0.37393 0.889593,0 0.897908,0.03222 0.3045,1.179743 -0.668799,1.293314 -1.614117,1.440695 -4.733016,0.737903 z M 69.108893,75.90491 c -0.423504,-0.510295 -0.309958,-0.594721 0.799861,-0.594721 0.711389,0 1.219701,0.05007 1.129584,0.111276 -0.09012,0.0612 -0.450056,0.328827 -0.799861,0.594721 -0.512606,0.389642 -0.731775,0.368051 -1.129584,-0.111276 z M 58.413451,75.434804 c 0.283876,-0.113598 0.62305,-0.09963 0.753726,0.03105 0.130672,0.130672 -0.101591,0.223616 -0.516139,0.206541 -0.458111,-0.01887 -0.551293,-0.112052 -0.237587,-0.237587 z"
       id="path201" />
    <path
       style="fill:#000000;stroke-width:1.35081"
       d="m 183.3719,434.62218 c 31.76082,-0.2019 83.73308,-0.2019 115.4939,0 31.76082,0.2019 5.7747,0.3671 -57.74695,0.3671 -63.52165,0 -89.50778,-0.1652 -57.74695,-0.3671 z"
       id="path906"
       transform="scale(0.26458333)" />
    <path
       style="fill:#000000;stroke-width:1.35081"
       d="m 279.16519,493.60104 c -6.7816,-2.90659 -12.89605,-5.28471 -13.58768,-5.28471 -1.30717,0 -2.13386,-4.26773 -3.59787,-18.57359 l -0.86396,-8.44253 h 4.18504 c 4.02539,0 4.18449,-0.21903 4.17018,-5.74093 -0.008,-3.15751 -0.38742,-7.99446 -0.84278,-10.74878 -0.78464,-4.74604 -1.15205,-5.05646 -7.02791,-5.9376 -4.53025,-0.67935 -7.19285,-0.3599 -9.88673,1.18617 -2.6483,1.51992 -3.8381,1.67044 -4.22403,0.53438 -0.37822,-1.1134 -5.26031,-1.48697 -16.49349,-1.26206 -8.77593,0.17571 -16.18185,0.54509 -16.4576,0.82084 -0.27575,0.27575 -0.87599,4.51307 -1.33386,9.41627 -0.80979,8.67194 -0.73527,8.95921 2.73448,10.54014 2.13123,0.97105 3.56698,2.71677 3.56698,4.33706 0,4.51371 -2.95591,20.33309 -4.27218,22.86375 -0.67802,1.30358 -4.92778,4.23538 -9.44391,6.51511 -7.35396,3.71226 -8.62963,3.97162 -12.22003,2.48443 -4.96825,-2.05792 -5.69689,-3.99691 -7.7678,-20.67098 -1.6787,-13.51626 -1.52088,-14.3739 2.94513,-16.00435 0.54184,-0.19781 1.1497,-4.91863 1.35081,-10.49071 l 0.36565,-10.13104 -6.52128,-0.416 c -3.5867,-0.2288 -7.33173,0.25661 -8.32228,1.0787 -1.11064,0.92175 -2.10714,0.99935 -2.59965,0.20245 -0.44328,-0.71725 -8.91157,-1.30259 -19.03154,-1.31548 l -18.23289,-0.0232 v 10.55909 c 0,10.28792 0.0917,10.58209 3.56898,11.45484 3.56746,0.89538 3.56861,0.90011 2.70204,11.15167 -0.47682,5.64075 -1.52171,11.04485 -2.32198,12.00912 -0.80027,0.96426 -4.5996,2.40675 -8.44296,3.20554 -3.84336,0.79878 -10.23957,2.9597 -14.21379,4.80204 -9.76501,4.52678 -10.63443,4.22372 -4.30011,-1.49895 2.95179,-2.66677 6.97538,-8.1363 8.94131,-12.15452 3.13583,-6.40941 3.66183,-9.46092 4.28675,-24.86907 l 0.71234,-17.56321 H 241.1043 355.52003 l 0.82986,17.22277 c 0.8786,18.23463 2.16295,23.82245 7.20098,31.32945 1.71675,2.55807 2.9855,4.78225 2.81944,4.94262 -0.16605,0.16038 -5.59412,-0.93984 -12.06237,-2.44492 l -11.76044,-2.73652 -0.80607,-6.25853 c -0.44333,-3.44218 -1.12718,-8.51403 -1.51964,-11.27076 -0.64397,-4.52337 -0.37348,-5.09761 2.77318,-5.88737 3.37339,-0.84667 3.48674,-1.21556 3.48674,-11.34836 v -10.47324 l -27.07041,-0.15575 c -22.88622,-0.13169 -27.19032,0.15668 -27.84609,1.8656 -0.42661,1.11176 -0.35374,5.96128 0.16195,10.77672 0.83943,7.83847 1.28844,8.84341 4.28755,9.59614 1.84246,0.46243 3.08831,1.52561 2.76856,2.36262 -0.31975,0.83702 -1.37851,8.94562 -2.35281,18.01911 -1.0576,9.84934 -2.40887,16.74187 -3.35327,17.10427 -0.87,0.33385 -7.1304,-1.77112 -13.912,-4.67771 z"
       id="path945"
       transform="scale(0.26458333)" />
    <path
       style="fill:#000000;stroke-width:1.35081"
       d="m 265.13852,410.30729 -0.38057,-15.87197 -26.00301,-0.36687 -26.00301,-0.36687 v -16.12517 -16.12516 l 26.34215,-0.39304 26.34216,-0.39304 -10e-4,16.54737 -0.001,16.54737 h 25.66531 25.66531 v 16.20967 16.20967 h -25.62245 -25.62244 z"
       id="path984"
       transform="scale(0.26458333)" />
    <path
       style="fill:#000000;stroke-width:1.35081"
       d="m 160.08894,352.89804 c 0.0267,-10.2545 1.0798,-13.17036 4.75677,-13.17036 1.71013,0 9.69586,-2.0651 17.74607,-4.58911 8.05021,-2.52401 18.12951,-5.0255 22.39845,-5.55887 l 7.7617,-0.96976 v 15.68992 15.68991 H 186.41121 160.0705 Z"
       id="path1023"
       transform="scale(0.26458333)" />
    <path
       style="fill:#000000;stroke-width:1.35081"
       d="m 161.16303,409.96703 -0.41713,-16.21223 26.00301,0.003 26.00302,0.003 v 16.20967 16.20967 h -25.58589 -25.58588 z"
       id="path1062"
       transform="scale(0.26458333)" />
    <path
       style="fill:#000000;stroke-width:1.35081"
       d="m 144.81826,386.37461 c 0.41922,-4.06193 0.0292,-11.11144 -0.86682,-15.6656 -0.89597,-4.55415 -1.43486,-8.45676 -1.19753,-8.67246 0.23733,-0.2157 4.23065,-0.82415 8.87405,-1.35212 l 8.44254,-0.95993 v 17.01771 17.0177 h -8.00724 -8.00724 z"
       id="path1101"
       transform="scale(0.26458333)" />
    <path
       style="fill:#000000;stroke-width:1.35081"
       d="m 265.72682,344.7932 0.38194,-15.19657 8.10483,0.008 c 5.66068,0.006 13.29783,1.63517 25.32483,5.40322 l 17.22,5.39501 0.003,9.79334 0.003,9.79335 h -25.70955 -25.70956 z"
       id="path1140"
       transform="scale(0.26458333)" />
    <path
       style="fill:#000000;stroke-width:1.35081"
       d="m 318.11478,377.55024 v -16.20967 h 10.95678 10.95678 l -1.16177,5.06552 c -0.63897,2.78604 -1.16252,10.08039 -1.16344,16.20968 l -0.002,11.14414 h -9.79334 -9.79335 z"
       id="path1179"
       transform="scale(0.26458333)" />
    <path
       style="fill:#000000;stroke-width:1.35081"
       d="m 220.85676,536.54009 c 0,-1.27011 -1.05644,-2.31556 -2.36391,-2.33933 -4.30045,-0.0781 2.21338,-3.85245 11.80033,-6.83743 6.52391,-2.03128 10.3714,-2.48551 14.87809,-1.75647 3.34324,0.54083 5.01486,1.23029 3.71471,1.53213 -1.30015,0.30184 -2.36391,1.06752 -2.36391,1.70151 0,0.63399 1.06376,1.4307 2.36391,1.77047 1.30015,0.33976 0.12784,0.68827 -2.60512,0.77445 -2.73297,0.0862 -5.88083,1.06849 -6.99525,2.1829 -1.24649,1.24649 -4.55843,2.02621 -8.60656,2.02621 -3.6192,0 -7.30979,0.72944 -8.20132,1.62097 -1.26075,1.26075 -1.62097,1.11066 -1.62097,-0.67541 z"
       id="path1255"
       transform="scale(0.26458333)" />
    <path
       style="fill:#000000;stroke-width:1.35081"
       d=""
       id="path1294"
       transform="scale(0.26458333)" />
    <path
       style="fill:#000000;stroke-width:1.35081"
       d=""
       id="path1333"
       transform="scale(0.26458333)" />
    <path
       style="fill:#000000;stroke-width:1.35081"
       d="m 226.03329,592.76942 c -1.2391,-0.32801 -4.51954,-3.88744 -7.28988,-7.90984 l -5.03697,-7.31346 2.33608,-6.11693 2.33607,-6.11693 h 8.14917 c 7.8634,0 8.33315,0.20129 13.39633,5.74033 2.88595,3.15717 5.24718,6.12303 5.24718,6.59079 0,0.46776 -1.56422,4.26717 -3.47604,8.44314 -3.33538,7.28542 -3.67701,7.58632 -8.44254,7.43597 -2.73157,-0.0862 -5.9803,-0.42507 -7.2194,-0.75307 z"
       id="path1372"
       transform="scale(0.26458333)" />
    <path
       style="fill:#000000;stroke-width:1.35081"
       d=""
       id="path1411"
       transform="scale(0.26458333)" />
    <path
       style="fill:#000000;stroke-width:1.35081"
       d="m 215.67036,559.17007 c -2.15517,-4.73008 -1.98675,-6.65195 1.1159,-12.73364 3.50394,-6.8683 7.45364,-9.49109 14.29275,-9.49109 5.72004,0 8.1004,1.65183 11.30702,7.8464 1.39947,2.70351 1.05804,3.98549 -2.56528,9.63194 -4.40613,6.86635 -7.23953,8.18697 -17.56521,8.18697 -4.06592,0 -5.31486,-0.65254 -6.58518,-3.44058 z"
       id="path1450"
       transform="scale(0.26458333)" />
    <path
       style="fill:#000000;stroke-width:1.35081"
       d="m 219.07382,560.59427 c -2.32682,-1.18198 -2.92355,-2.64417 -2.84324,-6.96687 0.2584,-13.90953 16.3275,-21.4043 23.69823,-11.05307 2.41436,3.39066 2.58959,4.50025 1.22933,7.78421 -3.66669,8.85216 -14.72151,13.9759 -22.08432,10.23573 z"
       id="path1489"
       transform="scale(0.26458333)" />
    <path
       style="fill:#000000;stroke-width:1.35081"
       d="m 245.02408,598.78759 c -3.45325,-1.41445 -3.48899,-1.56052 -1.77507,-7.25544 2.55893,-8.50267 4.29676,-11.20101 9.1002,-14.12987 6.09639,-3.71724 9.71253,-3.28475 15.29257,1.82897 l 4.87036,4.46335 -2.94357,5.76987 c -3.08801,6.053 -7.47988,8.7671 -16.29247,10.06846 -2.6003,0.38399 -6.31371,0.0486 -8.25202,-0.74534 z"
       id="path1528"
       transform="scale(0.26458333)" />
    <path
       style="fill:#000000;stroke-width:1.35081"
       d="m 244.93141,597.67816 c -1.73917,-1.01469 -2.01392,-2.20131 -1.18162,-5.10336 4.3747,-15.25368 14.33586,-20.58556 23.35076,-12.4989 l 4.41143,3.9572 -2.69107,5.03556 c -4.15593,7.77662 -17.23688,12.49085 -23.8895,8.6095 z"
       id="path1567"
       transform="scale(0.26458333)" />
    <path
       style="fill:#000000;stroke-width:1.35081"
       d=""
       id="path1606"
       transform="scale(0.26458333)" />
    <path
       style="fill:#000000;stroke-width:1.35081"
       d="m 268.41209,575.55255 c -7.19114,-8.19025 -6.93375,-20.65344 0.49644,-24.03886 3.13315,-1.42756 3.8041,-1.24395 5.97595,1.63532 4.29867,5.69889 4.88901,20.45078 1.01379,25.33361 -2.0086,2.53085 -3.04894,2.12367 -7.48618,-2.93007 z"
       id="path1645"
       transform="scale(0.26458333)" />
    <path
       style="fill:#000000;stroke-width:1.35081"
       d="m 269.81122,575.78101 c -3.52036,-3.75803 -5.72867,-9.38962 -5.72867,-14.6091 0,-4.26319 4.0859,-9.36771 7.49836,-9.36771 4.65135,0 8.04896,17.98012 4.61137,24.40331 -1.80049,3.36424 -2.89883,3.29083 -6.38106,-0.4265 z"
       id="path1684"
       transform="scale(0.26458333)" />
    <path
       style="fill:#000000;stroke-width:1.35081"
       d="m 254.68175,549.34862 c -7.08077,-2.71374 -16.3462,-13.36412 -13.30449,-15.29318 5.43561,-3.44729 20.10429,1.18334 25.50733,8.0522 l 2.81256,3.57559 -3.55803,3.06048 c -4.16784,3.58503 -3.74047,3.56247 -11.45737,0.60491 z"
       id="path1723"
       transform="scale(0.26458333)" />
    <path
       style="fill:#000000;stroke-width:1.35081"
       d="m 253.15086,547.31347 c -3.27436,-1.72696 -7.36801,-5.22217 -9.09699,-7.76713 l -3.1436,-4.62721 5.06308,-0.43301 c 6.29726,-0.53857 15.34813,2.81015 19.47864,7.20688 3.03575,3.2314 3.05535,3.40838 0.66958,6.04463 -3.17162,3.5046 -5.67702,3.42267 -12.97071,-0.42416 z"
       id="path1762"
       transform="scale(0.26458333)" />
    <path
       style="fill:#000000;stroke-width:1.35081"
       d="m 220.97058,585.91205 c -6.06557,-7.07664 -6.47109,-8.94756 -3.48725,-16.0889 l 2.0298,-4.85799 7.01661,0.93079 c 8.3577,1.10869 9.12857,1.50836 13.8746,7.19358 3.29669,3.94907 3.51893,4.8432 2.16746,8.72004 -2.91144,8.35176 -5.14356,10.51881 -10.83463,10.51881 -4.61101,0 -5.95193,-0.79912 -10.76659,-6.41633 z"
       id="path1801"
       transform="scale(0.26458333)" />
    <path
       style="fill:#000000;stroke-width:1.35081"
       d=""
       id="path1840"
       transform="scale(0.26458333)" />
    <path
       style="fill:#000000;stroke-width:1.35081"
       d=""
       id="path1879"
       transform="scale(0.26458333)" />
    <path
       style="fill:#000000;stroke-width:1.35081"
       d="m 219.07382,560.59427 c -2.32682,-1.18198 -2.92355,-2.64417 -2.84324,-6.96687 0.2584,-13.90953 16.3275,-21.4043 23.69823,-11.05307 2.41436,3.39066 2.58959,4.50025 1.22933,7.78421 -3.66669,8.85216 -14.72151,13.9759 -22.08432,10.23573 z"
       id="path1918"
       transform="scale(0.26458333)" />
    <path
       style="fill:#000000;stroke-width:1.35081"
       d="m 219.07382,560.59427 c -2.32682,-1.18198 -2.92355,-2.64417 -2.84324,-6.96687 0.2584,-13.90953 16.3275,-21.4043 23.69823,-11.05307 2.41436,3.39066 2.58959,4.50025 1.22933,7.78421 -3.66669,8.85216 -14.72151,13.9759 -22.08432,10.23573 z"
       id="path1957"
       transform="scale(0.26458333)" />
    <path
       style="fill:#000000;stroke-width:1.35081"
       d=""
       id="path1996"
       transform="scale(0.26458333)" />
    <path
       style="fill:#000000;stroke-width:1.35081"
       d=""
       id="path2035"
       transform="scale(0.26458333)" />
    <path
       style="fill:#000000;stroke-width:1.35081"
       d="m 219.71947,561.07447 c -3.99763,-1.47882 -4.59309,-3.34813 -3.51068,-11.02103 0.5454,-3.86621 1.25711,-6.26965 1.58157,-5.34097 0.41242,1.18046 4.21403,1.68851 12.63461,1.68851 6.62458,0 12.04469,0.33412 12.04469,0.74248 0,1.87927 -4.10364,8.31858 -6.96339,10.92675 -3.37774,3.0806 -11.43532,4.61397 -15.7868,3.00426 z"
       id="path2074"
       transform="scale(0.26458333)" />
    <path
       style="fill:#000000;stroke-width:1.35081"
       d="m 212.41662,595.36769 c -4.90366,-5.03232 -9.99229,-14.77488 -8.49771,-16.26946 2.15568,-2.15568 8.41574,2.55211 13.75228,10.34221 3.23795,4.72665 5.88718,9.13365 5.88718,9.79334 0,3.06829 -6.62456,0.76963 -11.14175,-3.86609 z"
       id="path2113"
       transform="scale(0.26458333)" />
    <path
       style="fill:#000000;stroke-width:1.35081"
       d="m 216.82107,597.44433 c -5.17968,-3.49059 -12.79785,-14.76498 -11.84167,-17.5249 0.39869,-1.15079 2.8848,0.48078 7.073,4.64181 3.55202,3.52898 7.442,6.42564 8.6444,6.43702 1.83421,0.0174 1.87395,0.21825 0.24682,1.24785 -1.5881,1.00491 -1.62614,1.60457 -0.20999,3.31091 3.27333,3.94412 0.86408,5.10628 -3.91256,1.88731 z"
       id="path2152"
       transform="scale(0.26458333)" />
    <path
       style="fill:#ffff00;stroke-width:1.35081"
       d=""
       id="path2191"
       transform="scale(0.26458333)" />
    <path
       style="fill:#ffff00;stroke-width:0.264583"
       id="path2296"
       d="m 57.271165,164.17656 c 0.323641,0.0321 0.648809,0.0462 0.972492,0.0771 0.409504,0.0667 0.814118,0.15903 1.221031,0.23934 0.344056,0.0749 0.693319,0.10597 1.0444,0.1178 0.365059,0.009 0.730311,0.007 1.095455,0.005 0.395536,0.0131 0.789744,0.05 1.184994,0.0699 0.348769,0.005 0.695344,0.043 1.042874,0.0683 0.502814,0.0332 1.007211,0.0297 1.510874,0.0346 0.367326,0.002 0.73464,0.008 1.101976,0.007 0.381786,0.008 0.759643,-0.0488 1.132888,-0.12289 0.370705,-0.0702 0.716502,-0.22278 1.065086,-0.36112 0.275444,-0.13167 0.553701,-0.25528 0.836676,-0.36981 0.483118,-0.20496 0.624371,-0.26019 1.304626,-0.74229 0.06944,-0.0492 -0.08444,-0.16337 -0.207804,-0.1905 -0.05284,-0.0116 -0.399693,-0.006 -0.437923,-0.006 -0.499946,-0.002 -0.998191,0.0347 -1.496234,0.0734 -0.274296,0.008 -0.540425,0.0635 -0.799902,0.14931 -0.438949,0.15795 -0.893828,0.26754 -1.346361,0.37873 -0.54396,0.13746 -1.101461,0.19256 -1.660197,0.22029 -0.487548,0.0177 -0.975503,0.018 -1.463291,0.015 -0.34866,-0.002 -0.697312,-0.003 -1.045975,-0.004 -0.431385,0.0105 -0.861433,-0.005 -1.291733,-0.0347 -0.342209,-0.003 -0.662268,-0.10681 -0.977397,-0.22808 -0.375457,-0.16003 -0.735658,-0.34888 -1.113877,-0.50295 -0.05199,-0.0201 -0.103976,-0.0402 -0.155964,-0.0602 0,0 -1.101037,0.74154 -1.101037,0.74154 v 0 c 0.05211,0.0186 0.104211,0.0373 0.156315,0.0559 0.379926,0.15033 0.746297,0.32355 1.111287,0.50745 0.326099,0.12339 0.652884,0.25616 1.008539,0.25457 0.429443,0.0273 0.858671,0.0577 1.289341,0.047 0.350515,-2e-5 0.70103,8e-4 1.051547,2.7e-4 0.491487,-0.002 0.983139,0.002 1.474409,-0.0154 0.564208,-0.0234 1.128027,-0.0665 1.678284,-0.20266 0.448744,-0.1056 0.898578,-0.21135 1.337921,-0.35182 0.248407,-0.1047 0.513943,-0.16698 0.783503,-0.18261 0.497303,-0.045 0.994666,-0.0944 1.494795,-0.0849 0.07618,-5.3e-4 0.152366,-0.002 0.228552,-0.002 0.06175,1e-5 0.12418,0.0109 0.185232,0.002 0.316648,-0.0479 -0.06928,-0.0167 0.04946,-0.0918 0.351782,-0.22242 0.722903,-0.41266 1.084001,-0.61961 0.03007,-0.0172 -0.06061,0.0336 -0.09092,0.0505 -0.287879,0.10923 -0.571888,0.22904 -0.843724,0.37444 -0.346752,0.13845 -0.688406,0.29648 -1.053364,0.38175 -0.366081,0.0768 -0.734193,0.14775 -1.110359,0.13931 -0.371962,-1.1e-4 -0.743908,0.006 -1.115875,0.004 -0.499163,-0.001 -0.998714,-0.004 -1.497155,-0.0339 -0.348025,-0.0243 -0.694082,-0.0725 -1.043403,-0.0721 -0.397359,-0.0163 -0.793745,-0.0461 -1.190437,-0.0737 -0.363556,-1.2e-4 -0.727136,0.002 -1.090666,-0.004 -0.348019,-0.009 -0.695724,-0.0296 -1.038283,-0.0964 -0.407826,-0.0752 -0.811284,-0.17058 -1.217382,-0.25405 -0.320627,-0.0424 -0.646086,-0.0362 -0.966814,-0.0816 0,0 -1.090483,0.77399 -1.090483,0.77399 z" />
    <path
       style="fill:#000000;stroke-width:0.264583"
       id="path2298"
       d="m 42.450755,75.898752 c 0.351001,0.02577 0.699222,0.08247 1.04412,0.151297 0.262646,0.06396 0.522502,0.136459 0.777615,0.225848 0.268407,0.09683 0.51955,0.231728 0.772592,0.361882 0.244819,0.139054 0.493863,0.268208 0.752128,0.380312 0.243856,0.113342 0.504706,0.167785 0.769985,0.198826 0.284438,0.02151 0.569989,0.01789 0.855007,0.01693 0.390326,-0.0027 0.780661,-0.0032 1.170995,-0.0036 0.334553,7.1e-5 0.669089,0.0019 1.003641,0.0013 0.363525,0.0024 0.726454,0.0043 1.087448,-0.04266 0.254551,-0.04191 0.505902,-0.102544 0.752433,-0.178173 0.239133,-0.09293 0.481753,-0.178697 0.717045,-0.281106 0.284361,-0.141057 0.577852,-0.259361 0.878996,-0.359103 0.367125,-0.123836 0.747683,-0.196501 1.123495,-0.287084 0.243443,-0.06733 0.494421,-0.08679 0.745545,-0.09753 0.470607,-0.01355 0.941438,-0.01206 1.412182,-0.0108 0.52097,-2.6e-4 1.041932,-5.3e-4 1.562894,0.0029 0.342,0.0019 0.684006,0.0021 1.026009,0.0031 0.386712,7.93e-4 0.77311,-0.0109 1.159235,0.01249 0.566645,0.05613 1.133824,0.104926 1.702191,0.139734 0.410901,0.04034 0.818796,0.110382 1.226812,0.173884 0.719633,0.133411 1.441784,0.248595 2.169764,0.324679 0.552976,0.05437 1.108897,0.05745 1.66397,0.06141 0.453485,0.0031 0.906981,0.0024 1.360468,2.41e-4 0.459931,-0.0019 0.919861,-5.3e-5 1.379792,-7.94e-4 0.563872,5.29e-4 1.127712,-0.0051 1.691587,-0.0039 0.533426,0.03173 1.060476,-0.03268 1.589421,-0.08804 0.592275,-0.0562 1.187249,-0.07215 1.781783,-0.08183 0.392761,-0.03039 0.774618,0.02551 1.157899,0.103222 0.399153,0.09146 0.778132,0.24638 1.165296,0.375603 0.320578,0.08757 0.64397,0.165221 0.96845,0.236939 0.133482,0.03094 0.269457,0.04711 0.405312,0.06292 0,0 1.085866,-0.772409 1.085866,-0.772409 v 0 C 79.276892,76.51392 79.142846,76.50262 79.010961,76.4758 78.68744,76.41137 78.3685,76.327012 78.047349,76.251997 c -0.39492,-0.120502 -0.776637,-0.281641 -1.177494,-0.384262 -0.389977,-0.08157 -0.774864,-0.167968 -1.176869,-0.125836 -0.598652,0.01402 -1.197375,0.03562 -1.794706,0.07872 -0.527867,0.04769 -1.052838,0.129529 -1.584899,0.100499 -0.560393,0.0011 -1.120746,-0.0044 -1.681136,-0.0038 -0.460118,-5.29e-4 -0.920242,0.0013 -1.38036,0.0011 -0.454713,-5.29e-4 -0.909413,0.0021 -1.364121,0.0035 -0.554513,-0.0013 -1.109617,-0.0042 -1.662792,-0.04755 -0.724299,-0.0638 -1.445726,-0.161721 -2.15542,-0.322807 -0.40853,-0.07728 -0.822725,-0.134165 -1.234861,-0.187264 -0.568764,-0.02506 -1.136719,-0.06605 -1.702041,-0.1347 -0.383413,-0.0415 -0.768299,-0.02779 -1.153668,-0.03024 -0.344664,0.0011 -0.689332,0.0013 -1.033994,0.0028 -0.522613,0.0029 -1.04522,0.0021 -1.567839,7.94e-4 -0.467026,2.64e-4 -0.934037,-0.0032 -1.40104,-0.0026 -0.255519,0.005 -0.513225,0.01077 -0.762233,0.07502 -0.37956,0.09554 -0.76391,0.171428 -1.138152,0.287792 -0.301535,0.08991 -0.596107,0.195699 -0.878653,0.334473 -0.226279,0.12024 -0.474302,0.193117 -0.710152,0.292129 -0.234489,0.101772 -0.493067,0.141137 -0.740706,0.201301 -0.354738,0.0692 -0.714256,0.06667 -1.074492,0.05962 -0.3362,-5.29e-4 -0.672383,0.0016 -1.008581,0.0021 -0.388845,2.65e-4 -0.777687,0.0011 -1.166532,2.65e-4 -0.280712,-1.33e-4 -0.561639,0.0024 -0.842142,-0.01021 -0.257098,-0.01926 -0.512416,-0.05658 -0.750446,-0.16178 -0.256132,-0.110326 -0.505528,-0.232494 -0.746516,-0.373345 -0.257485,-0.132448 -0.512363,-0.270444 -0.781582,-0.37823 -0.261162,-0.0906 -0.52265,-0.173482 -0.791649,-0.238705 -0.346125,-0.06841 -0.694293,-0.127547 -1.045099,-0.166306 0,0 -1.088419,0.774327 -1.088419,0.774327 z" />
    <path
       style="fill:#000000;stroke-width:0.337701"
       d="m 230.3124,618.84941 c -1.23849,-0.14293 -3.20778,-0.76964 -5.06552,-1.61208 -1.7416,-0.78976 -3.17005,-1.2532 -3.3455,-1.0854 -0.40202,0.3845 -8.37582,-3.6759 -11.81366,-6.01572 -8.3244,-5.66565 -15.64283,-13.04718 -24.47105,-24.68204 -1.92288,-2.5342 -7.58932,-10.72676 -12.59208,-18.20567 l -9.09593,-13.59804 -13.75412,-6.87866 c -14.7232,-7.36331 -18.29235,-9.30837 -24.38074,-13.28669 -4.39107,-2.86924 -5.93382,-4.07997 -10.41858,-8.17639 -1.7369,-1.5865 -3.78843,-3.44794 -4.55897,-4.13653 l -1.40097,-1.25198 131.70357,-3.4e-4 131.70357,-3.4e-4 -1.2076,1.08347 c -0.66418,0.59591 -2.84397,2.56779 -4.84399,4.38195 -7.82228,7.09539 -14.60619,11.274 -34.66361,21.35134 l -14.37449,7.2221 -8.08266,12.26106 c -4.44546,6.74358 -9.43795,14.1611 -11.09441,16.48338 -9.17803,12.86712 -17.85567,21.81524 -26.36828,27.19016 -3.68711,2.32807 -11.63743,6.24334 -12.67768,6.24334 -0.4142,0 -2.67005,0.52924 -5.013,1.17609 -2.34295,0.64684 -5.6276,1.32944 -7.29922,1.51688 -3.34881,0.37551 -13.69862,0.38783 -16.88508,0.0201 z m 18.31154,-7.44922 c 7.16085,-0.89789 16.59768,-5.66433 22.93857,-11.58602 6.11706,-5.71266 10.58024,-13.76195 12.48332,-22.51351 0.8702,-4.00174 0.88223,-13.17532 0.0226,-17.22277 -3.94154,-18.55788 -16.3787,-30.49007 -36.40505,-34.92694 -6.19715,-1.37299 -9.72835,-1.11021 -18.33302,1.36425 -12.49126,3.59214 -21.21436,10.70183 -27.50601,22.41854 -2.91996,5.43773 -4.43783,11.87738 -4.43783,18.82775 0,16.98752 7.17357,29.90782 21.03334,37.88309 5.61325,3.23001 10.5103,5.11042 14.93187,5.73367 2.92827,0.41275 12.0509,0.42586 15.27222,0.022 z"
       id="path2448"
       transform="scale(0.26458333)" />
    <path
       style="fill:#000000;stroke-width:0.337701"
       d="m 203.69398,556.14175 c -0.42585,-0.42585 -0.23209,-2.1086 0.44938,-3.90275 2.46238,-6.48279 14.57307,-19.52133 15.99506,-17.2205 0.28637,0.46336 -0.92979,2.7681 -4.27265,8.09708 -1.77928,2.83642 -3.41937,5.72377 -3.64463,6.41633 -0.55802,1.71558 -0.93313,2.2017 -2.86728,3.71579 -2.82218,2.20925 -5.15291,3.40101 -5.65988,2.89405 z"
       id="path2487"
       transform="scale(0.26458333)" />
    <path
       style="fill:#000000;stroke-width:0.337701"
       d="m 200.95215,575.04388 c -0.47041,-1.20907 -0.60043,-7.76467 -0.21585,-10.88322 0.65644,-5.32315 1.17685,-5.31561 1.55785,0.0226 0.23584,3.30436 -0.29509,10.66617 -0.80609,11.17717 -0.17107,0.17107 -0.39846,0.0368 -0.53591,-0.31652 z"
       id="path2526"
       transform="scale(0.26458333)" />
    <path
       style="fill:#000000;stroke-width:0.337701"
       d="m 240.80904,608.07663 c -0.70722,-1.14432 6.7308,-4.32895 13.90802,-5.9548 3.93273,-0.89088 7.2433,-1.96491 10.3038,-3.34281 1.99625,-0.89875 3.28296,-1.12128 3.28296,-0.56776 0,1.07565 -9.82741,6.84966 -14.35231,8.43257 -3.87844,1.35676 -12.6017,2.30778 -13.14247,1.4328 z"
       id="path2565"
       transform="scale(0.26458333)" />
    <path
       style="fill:#000000;stroke-width:0.337701"
       d="m 183.7297,325.96634 c -0.24859,-0.60364 -2.28877,-5.6117 -4.53373,-11.12903 -6.2683,-15.40532 -8.30274,-19.68405 -10.44423,-21.96571 -0.47939,-0.51077 -1.15317,-0.92868 -1.4973,-0.92868 -0.96785,0 -3.16005,-1.23472 -3.92994,-2.21348 -0.72656,-0.92368 -1.22189,-2.12626 -0.97675,-2.3714 0.37683,-0.37683 5.52357,1.32313 8.66811,2.86307 2.01969,0.98908 3.97991,1.72181 4.60622,1.72181 0.59966,0 2.58869,0.30999 4.42006,0.68887 6.73878,1.39414 10.51131,1.23398 12.84729,-0.54541 0.59125,-0.45038 1.22364,-0.81886 1.40531,-0.81886 0.18167,0 1.57228,-0.53159 3.09026,-1.18131 5.54739,-2.37438 6.94779,-2.60298 17.05543,-2.78403 10.46778,-0.18751 16.75652,0.20405 24.65221,1.53493 5.3137,0.89566 5.65501,0.91075 20.59979,0.91075 8.35811,0 17.62802,-0.0683 20.59979,-0.15175 5.17108,-0.14523 5.52033,-0.11277 8.12886,0.75544 2.42066,0.80569 2.84811,1.07772 3.82013,2.43124 1.04232,1.4514 1.17352,1.52404 2.75267,1.52404 0.91201,0 4.05586,-0.62931 6.98633,-1.39848 2.93047,-0.76916 6.61984,-1.73619 8.19859,-2.14896 1.57875,-0.41277 3.45948,-0.84077 4.17939,-0.95111 l 1.30892,-0.20061 -0.16973,1.25205 c -0.36265,2.67504 -5.73283,14.96849 -11.05645,25.31048 -3.50528,6.80957 -5.65709,10.21827 -6.45048,10.21827 -0.60377,0 -11.787,-3.2486 -20.90639,-6.07306 -13.15982,-4.07587 -16.26725,-4.64609 -27.80713,-5.10265 -9.73397,-0.38511 -22.32613,0.0106 -28.08247,0.88241 -7.32957,1.11013 -15.59557,3.47945 -30.17817,8.6501 -3.59648,1.27523 -6.60556,2.3186 -6.68683,2.3186 -0.0813,0 -0.35117,-0.49388 -0.59976,-1.09753 z"
       id="path2604"
       transform="scale(0.26458333)" />
    <path
       style="fill:#000000;stroke-width:0.337701"
       d="m 238.24276,331.97374 c -1.75355,-1.74227 -6.041,-4.18311 -11.93677,-6.79557 -3.93488,-1.74359 -5.09424,-2.38951 -4.61023,-2.56856 3.82119,-1.41355 16.19614,-2.20987 25.8033,-1.66043 5.6097,0.32082 11.34186,1.02981 13.03762,1.61257 0.51978,0.17862 -19.67224,10.5292 -20.60541,10.56248 -0.2817,0.01 -1.04153,-0.50767 -1.68851,-1.15049 z"
       id="path2643"
       transform="scale(0.26458333)" />
    <path
       style="fill:#000000;stroke-width:0.337701"
       d="m 224.74033,486.48101 c 0,-1.02569 3.33473,-22.70296 3.91774,-25.46709 l 0.20284,-0.96168 6.46667,0.22367 c 9.87572,0.3416 16.13231,1.01738 17.44197,1.88392 0.91891,0.60801 -0.47966,1.22315 -3.25882,1.43333 -3.82143,0.28902 -4.48349,1.28226 -4.50026,6.75141 -0.0172,5.60603 2.50082,7.47684 6.98803,5.19192 0.96893,-0.49339 1.98377,-0.89707 2.25518,-0.89707 0.68359,0 1.02077,3.0148 0.78297,7.00064 -0.24478,4.10298 -0.67286,4.82168 -2.86586,4.81149 -1.91836,-0.009 -4.2153,-0.98337 -4.94576,-2.0982 -0.29242,-0.44628 -0.66703,-1.53602 -0.83249,-2.42165 -0.16545,-0.88563 -0.44798,-1.7574 -0.62783,-1.93726 -0.54571,-0.5457 -4.25968,-0.91691 -6.51419,-0.65108 -1.71766,0.20253 -2.27425,0.42586 -2.91352,1.16905 -0.43462,0.50529 -0.79022,1.21904 -0.79022,1.58612 0,0.36708 -0.22248,1.19988 -0.4944,1.85068 -0.60893,1.45737 -1.85733,2.0275 -5.07768,2.31893 -1.30015,0.11766 -3.00976,0.29402 -3.79914,0.39192 -0.89575,0.11109 -1.43523,0.0438 -1.43523,-0.17905 z m 9.94586,-10.63105 c 1.78681,-0.74658 2.03451,-1.51821 2.03876,-6.35111 0.003,-3.94122 -0.0559,-4.35599 -0.71822,-5.01832 -1.61404,-1.61404 -5.74465,-1.11788 -6.79167,0.8158 -0.85641,1.58165 -0.84289,8.1425 0.0195,9.45976 1.02481,1.56534 3.25314,2.01246 5.45163,1.09387 z"
       id="path2682"
       transform="scale(0.26458333)" />
    <path
       style="fill:#000000;stroke-width:0.337701"
       d="m 174.34724,489.13265 c -2.0481,-0.30015 -3.57771,-0.94159 -4.28894,-1.79858 -0.23747,-0.28612 -0.61772,-1.97157 -0.845,-3.74543 -0.22728,-1.77386 -0.58818,-3.40015 -0.802,-3.61397 -0.94863,-0.94862 -7.82279,-1.01529 -9.09071,-0.0882 -0.41766,0.3054 -0.63533,1.13501 -0.78821,3.00416 -0.11617,1.42023 -0.38178,2.75282 -0.59026,2.96129 -0.28026,0.28027 -1.04492,0.23274 -2.93408,-0.18237 -1.40526,-0.30879 -3.0031,-0.56143 -3.55074,-0.56143 -0.69943,0 -1.16676,-0.26102 -1.57049,-0.8772 -0.54493,-0.83167 -0.52662,-1.38824 0.35269,-10.72202 1.22889,-13.04442 1.01894,-11.98585 2.5061,-12.63595 1.03836,-0.45392 3.09133,-0.56849 12.30599,-0.68681 l 11.05973,-0.14201 v 1.15657 c 0,3.23607 2.26309,23.78699 2.91557,26.47606 0.0995,0.41021 -0.0624,0.94625 -0.38251,1.26638 -0.59811,0.59811 -1.29813,0.62897 -4.29714,0.18947 z m -1.20325,-12.81905 c 1.63603,-0.45437 1.94984,-1.55299 1.95234,-6.83498 0.002,-4.96241 -0.40587,-6.17688 -2.18864,-6.51133 -1.80591,-0.33879 -4.28234,0.0243 -4.77667,0.70031 -1.04488,1.42896 -1.05637,10.18361 -0.0155,11.77226 0.73022,1.11446 2.84105,1.48124 5.02842,0.87374 z m -14.9078,-0.85079 c 0.91017,-0.82369 1.32368,-2.58736 1.32587,-5.65495 0.003,-3.67287 -0.51656,-5.53868 -1.71343,-6.15761 -1.10648,-0.57218 -3.10999,-0.64501 -4.04073,-0.14689 -1.08447,0.58039 -1.79835,3.74835 -1.82154,8.0833 -0.0203,3.79183 -0.004,3.87928 0.82356,4.32241 1.14661,0.61426 4.56506,0.33313 5.42627,-0.44626 z"
       id="path2721"
       transform="scale(0.26458333)" />
    <path
       style="fill:#000000;stroke-width:0.337701"
       d="m 303.31815,492.74684 c -0.11153,-0.29063 0.003,-1.71033 0.25513,-3.15487 0.25184,-1.44455 0.7842,-5.58978 1.18302,-9.21163 1.8955,-17.21411 2.01605,-17.78905 4.01175,-19.13395 1.55875,-1.05044 3.93981,-1.25646 11.70253,-1.01258 6.07403,0.19083 9.76256,0.57723 10.26015,1.07483 0.0971,0.0971 -0.0691,0.42215 -0.36938,0.72239 -0.3442,0.3442 -1.43002,0.62693 -2.93885,0.76523 -3.77158,0.34571 -3.90449,0.57435 -3.90449,6.71706 0,5.96268 0.24282,6.59708 2.66407,6.96017 0.83632,0.12542 2.12253,0.0659 2.85824,-0.13217 1.73062,-0.466 2.06534,-1.40039 2.10963,-5.88914 0.048,-4.86375 0.4155,-5.8246 0.91716,-2.39794 0.49429,3.37635 1.75079,15.78277 1.75079,17.28698 v 1.11775 h -3.48132 c -4.45608,0 -4.65969,-0.1389 -5.00781,-3.41614 -0.19714,-1.85595 -0.43504,-2.63224 -0.93029,-3.03561 -1.12169,-0.91362 -5.01512,-1.12834 -8.33643,-0.45977 -1.08108,0.21762 -1.49296,1.59115 -1.49501,4.98562 -0.002,3.66431 -0.42837,5.4658 -1.45011,6.13018 -0.88874,0.5779 -5.89035,2.05632 -8.05474,2.38089 -1.23263,0.18484 -1.58187,0.12531 -1.74404,-0.2973 z m 10.63659,-17.11446 c 0.75228,-0.8914 1.07426,-3.70386 0.88174,-7.70192 -0.20655,-4.28937 -0.47604,-4.77289 -2.66012,-4.77289 -2.17612,0 -3.50864,0.69871 -4.00565,2.10037 -0.21605,0.60928 -0.55727,2.86726 -0.75827,5.01772 -0.53202,5.6919 0.0797,6.57474 4.28602,6.18567 1.13149,-0.10466 1.8758,-0.37812 2.25628,-0.82895 z"
       id="path2760"
       transform="scale(0.26458333)" />
  </g>
</svg>
